HIERARCHY
ROOT pelvis
{
  OFFSET 0 100 0
  CHANNELS 6 Xposition Yposition Zposition Zrotation Xrotation Yrotation
  JOINT pelvis_right_femur
  {
    OFFSET -10.78128 -3.44521 -0.5502486
    CHANNELS 3 Zrotation Xrotation Yrotation
    JOINT right_femur_tibia
    {
      OFFSET -0.8047443 -44.0398 -0.1307829
      CHANNELS 3 Zrotation Xrotation Yrotation
      JOINT right_tibia_foot
      {
        OFFSET 3.006224 -47.83518 -5
        CHANNELS 3 Zrotation Xrotation Yrotation
        End Site
        {
          OFFSET 0 -5 15
        }
      }
    }
  }
  JOINT pelvis_left_femur
  {
    OFFSET 10.78128 -3.44521 -0.5502486
    CHANNELS 3 Zrotation Xrotation Yrotation
    JOINT left_femur_tibia
    {
      OFFSET 0.8047443 -44.0398 -0.1307829
      CHANNELS 3 Zrotation Xrotation Yrotation
      JOINT left_tibia_foot
      {
        OFFSET -4.370144 -48.10324 -4.275266
        CHANNELS 3 Zrotation Xrotation Yrotation
        End Site
        {
          OFFSET 0 -5 15
        }
      }
    }
  }
  JOINT pelvis_spine1
  {
    OFFSET 0 6.468898 -3.129235
    CHANNELS 3 Zrotation Xrotation Yrotation
    JOINT spine1
    {
      OFFSET 0 23.15396 4.99043
      CHANNELS 3 Zrotation Xrotation Yrotation
      JOINT spine2
      {
        OFFSET 0 20.79997 -5.064912
        CHANNELS 3 Zrotation Xrotation Yrotation
        JOINT neck
        {
          OFFSET 0 14.38658 9.616178
          CHANNELS 3 Zrotation Xrotation Yrotation
          End Site
          {
            OFFSET 0 20 0
          }
        }
      }
      JOINT right_manubrium
      {
        OFFSET -5.722621 16.35077 3.967754
        CHANNELS 3 Zrotation Xrotation Yrotation
        JOINT right_clavicle
        {
          OFFSET -13.16364 1.694482 -4.693211
          CHANNELS 3 Zrotation Xrotation Yrotation
          JOINT right_humerus
          {
            OFFSET -28.5034 -0.3100689 -2.792744
            CHANNELS 3 Zrotation Xrotation Yrotation
            JOINT right_radius
            {
              OFFSET -25.15693 0.02248979 -1.271978
              CHANNELS 3 Zrotation Xrotation Yrotation
              End Site
              {
                OFFSET -15 0 0
              }
            }
          }
        }
      }
      JOINT left_manubrium
      {
        OFFSET 5.722621 16.35077 3.967754
        CHANNELS 3 Zrotation Xrotation Yrotation
        JOINT left_clavicle
        {
          OFFSET 13.16364 1.694482 -4.693211
          CHANNELS 3 Zrotation Xrotation Yrotation
          JOINT left_humerus
          {
            OFFSET 29.39168 -1.063119 -2.237045
            CHANNELS 3 Zrotation Xrotation Yrotation
            JOINT left_radius
            {
              OFFSET 24.59957 -0.9528479 0.9047498
              CHANNELS 3 Zrotation Xrotation Yrotation
              End Site
              {
                OFFSET 15 -0 -0
              }
            }
          }
        }
      }
    }
  }
}
MOTION
Frames: 9
Frame Time: 0.0416666666667
-1029.51 106.5443 2350.888 -7.688275 -7.335682 -58.33037 -1.939232 10.84847 -2.560438 -0 45.18597 -0 -14.96338 9.861245 3.575007 -5.787687 -1.97806 -14.16494 -0 14.03735 -0 -0.1316528 -8.976339 20.58712 0.7759727 -2.112397 9.596431 1.250031 15.22359 -8.273306 -0.03282814 20.42766 2.036286 2.764814 -17.26741 1.244052 -3.24416 -28.68908 12.70454 91.09241 24.3418 -15.4771 -0 0 26.85688 -17.3674 8.288442 2.905369 4.283468 -26.09508 -7.04606 -92.12099 5.794661 30.15349 0 0 -9.472565 13.21712 12.17542 -8.321209
-1033.59 107.5669 2354.291 -7.860954 -7.185776 -57.85652 -1.599819 5.945438 -2.781094 -0 46.5024 -0 -15.18628 10.84638 3.356379 -5.861486 1.341871 -14.47689 -0 13.54456 -0 -0.1291719 -10.49398 20.50157 1.172649 -1.963622 9.957754 1.843299 14.78598 -9.085025 -0.2058871 20.37959 1.718323 2.275203 -18.05631 1.015179 -5.025235 -28.83924 12.56808 92.76424 24.02374 -16.93196 -0 0 26.66003 -16.51742 7.040031 1.522455 4.237613 -26.55403 -6.633617 -91.46876 5.349314 29.31047 0 0 -11.84724 13.10763 11.92749 -9.372276
-1037.347 108.3357 2357.417 -7.758358 -6.776209 -57.38268 -1.147967 0.7351287 -2.917079 -0 45.4065 -0 -14.87173 10.2262 2.775383 -5.759537 4.282575 -14.64951 -0 12.3824 -0 -0.1430808 -12.08985 20.1668 1.587107 -1.813655 10.30827 2.383867 14.18788 -9.861417 -0.3879523 20.33738 1.498185 1.833684 -18.9248 0.8505402 -6.953913 -28.89566 12.35307 94.47693 23.92304 -18.34509 -0 0 26.40402 -15.81667 5.722808 0.1298377 4.366493 -27.05145 -6.071139 -90.72479 4.791008 28.20405 0 0 -14.45382 13.24358 11.74244 -10.81494
-1040.829 108.7299 2360.303 -7.362453 -6.16774 -56.95439 -0.6511225 -4.487791 -2.960019 -0 42.17141 -0 -14.07276 8.408744 1.939178 -5.595963 6.794008 -14.70586 -0 10.9029 -0 -0.09546066 -13.74864 19.66406 1.990326 -1.674075 10.61599 2.828454 13.45152 -10.5472 -0.5680426 20.29083 1.413778 1.491446 -19.83006 0.7733817 -8.890408 -28.82968 12.07434 96.1164 24.08426 -19.64077 -0 0 26.08897 -15.32143 4.438896 -1.187841 4.701862 -27.56516 -5.369135 -89.93416 4.128729 26.86259 0 0 -17.15713 13.66758 11.62278 -12.61149
-1044.116 108.7006 2363.004 -6.696436 -5.422734 -56.60417 -0.1343132 -9.519095 -2.914511 -0 37.34844 -0 -12.93748 5.95448 1.006603 -5.456466 8.874016 -14.62909 -0 9.469265 -0 0.1385743 -15.41779 19.10992 2.351705 -1.553879 10.84775 3.150575 12.6223 -11.10236 -0.7349971 20.22649 1.489488 1.292659 -20.72649 0.7979362 -10.67363 -28.61996 11.76246 97.57174 24.51096 -20.76949 -0 0 25.70544 -15.05231 3.291989 -2.353896 5.248991 -28.07058 -4.560854 -89.14882 3.390837 25.33646 0 0 -19.81476 14.38377 11.55024 -14.66699
-1047.307 108.2647 2365.587 -5.818253 -4.603604 -56.34634 0.4005775 -14.22529 -2.805316 -0 31.61032 -0 -11.65418 3.470452 0.1379901 -5.392713 10.56067 -14.3862 -0 8.398615 -0 0.6608797 -17.01631 18.60942 2.644374 -1.4591 10.97631 3.343927 11.76173 -11.50714 -0.8786279 20.13132 1.729371 1.263857 -21.57032 0.9263171 -12.15125 -28.26115 11.4557 98.74957 25.16227 -21.70551 -0 0 25.24268 -14.99379 2.369473 -3.306387 5.981802 -28.54298 -3.698655 -88.41929 2.624677 23.69648 0 0 -22.29345 15.3495 11.49383 -16.83705
-1050.512 107.4893 2368.122 -4.812561 -3.77332 -56.17452 0.9544535 -18.49981 -2.679242 -0 25.61105 -0 -10.41005 1.505058 -0.5417644 -5.421299 11.91846 -13.95257 -0 7.945255 -0 1.486293 -18.44246 18.21299 2.849823 -1.392117 10.98639 3.420479 10.93642 -11.76197 -0.9909561 19.99814 2.114701 1.406877 -22.32343 1.147416 -13.21054 -27.76766 11.18946 99.58831 25.9621 -22.44227 -0 0 24.69594 -15.10247 1.726334 -4.004747 6.844632 -28.96022 -2.846312 -87.78553 1.890351 22.02698 0 0 -24.48324 16.47954 11.42355 -18.95043
-1053.852 106.4731 2370.684 -3.784172 -2.994179 -56.06379 1.521401 -22.21796 -2.595202 -0 19.90971 -0 -9.371257 0.4594183 -0.9591407 -5.525506 13.02024 -13.32818 -0 8.314747 -0 2.511394 -19.57589 17.89368 2.960186 -1.351203 10.87754 3.404151 10.20712 -11.88264 -1.067238 19.82998 2.607419 1.698648 -22.95575 1.438623 -13.79773 -27.17096 10.98813 100.0669 26.8172 -22.9874 -0 0 24.07032 -15.32157 1.377509 -4.43387 7.761133 -29.30525 -2.069397 -87.27078 1.250045 20.4154 0 0 -26.30503 17.66323 11.32311 -20.83998
-1057.445 105.3333 2373.344 -2.853197 -2.322632 -55.97825 2.096339 -25.20897 -2.601029 -0 14.96279 -0 -8.674584 0.524709 -1.092787 -5.658123 13.92564 -12.54226 -0 9.690651 -0 3.525186 -20.27596 17.55241 2.977572 -1.330932 10.66277 3.322792 9.620917 -11.89282 -1.106452 19.6411 3.158318 2.097918 -23.44569 1.770009 -13.91894 -26.51239 10.86241 100.204 27.63695 -23.35829 -0 0 23.38048 -15.59598 1.301387 -4.603382 8.647719 -29.56748 -1.426551 -86.88089 0.7568306 18.94207 0 0 -27.71079 18.7882 11.19485 -22.37096
